# xmcd
#
# Track frame offsets: 
#        150
#        18157
#        37262
#        59816
#        76433
#        95937
#        115437
#        137056
#        161431
#        181248
#        200228
#        218779
#        237707
#
# Disc length: 3461 seconds
#
# Revision: 0
# Processed by: cddbd v1.5.2PL0 Copyright (c) Steve Scherf et al.
# Submitted via: ExactAudioCopy v0.99pb5
#
DISCID=ca0d830d
DTITLE=Bebo Best and The Super Lounge Orchestra - Saronno On The Rocks
DYEAR=2011
DGENRE=A Cappella
TTITLE0=Saronno On The Rocks
TTITLE1=Havana Jazz Dance
TTITLE2=Mambo And Cola
TTITLE3=Sing Sing Sing
TTITLE4=James Bond Theme
TTITLE5=Jazz Or Nu Jazz
TTITLE6=That's The Way I Like It
TTITLE7=Now And Ever
TTITLE8=Chill Radio Bossa
TTITLE9=The Sun Is Shinin'
TTITLE10=Jazz Carnival
TTITLE11=Daikiri Bossa Dance
TTITLE12=Sing Sing Sing (Koko Chanel Remix)
EXTD=
EXTT0=
EXTT1=
EXTT2=
EXTT3=
EXTT4=
EXTT5=
EXTT6=
EXTT7=
EXTT8=
EXTT9=
EXTT10=
EXTT11=
EXTT12=
PLAYORDER=
